<?xml version="1.0" encoding="UTF-8"?>
<!DOCTYPE svg PUBLIC "-//W3C//DTD SVG 1.1//EN" "http://www.w3.org/Graphics/SVG/1.1/DTD/svg11.dtd">
<svg xmlns="http://www.w3.org/2000/svg" version="1.1" width="128px" height="128px" style="shape-rendering:geometricPrecision; text-rendering:geometricPrecision; image-rendering:optimizeQuality; fill-rule:evenodd; clip-rule:evenodd" xmlns:xlink="http://www.w3.org/1999/xlink">
<g><path style="opacity:0.806" fill="#000000" d="M 17.5,-0.5 C 18.8333,-0.5 20.1667,-0.5 21.5,-0.5C 24.4625,2.96414 27.6291,6.29747 31,9.5C 32.1321,14.0411 30.2988,16.2077 25.5,16C 29.2522,19.0068 31.2522,22.8401 31.5,27.5C 29.8008,27.6602 28.1341,27.4935 26.5,27C 23.0447,22.5891 19.7114,18.0891 16.5,13.5C 17.7549,11.2198 19.7549,10.0532 22.5,10C 20.2911,8.12663 18.4578,5.95997 17,3.5C 16.4209,2.07153 16.5876,0.738195 17.5,-0.5 Z"/></g>
<g><path style="opacity:0.803" fill="#000000" d="M 105.5,-0.5 C 106.833,-0.5 108.167,-0.5 109.5,-0.5C 110.412,0.738195 110.579,2.07153 110,3.5C 108.542,5.95997 106.709,8.12663 104.5,10C 107.245,10.0532 109.245,11.2198 110.5,13.5C 107.45,19.3445 103.283,24.0111 98,27.5C 96.3925,27.2308 95.2259,26.3974 94.5,25C 96.35,21.6381 98.6833,18.6381 101.5,16C 96.7012,16.2077 94.8679,14.0411 96,9.5C 99.3709,6.29747 102.538,2.96414 105.5,-0.5 Z"/></g>
<g><path style="opacity:0.838" fill="#000000" d="M 127.5,105.5 C 127.5,109.5 127.5,113.5 127.5,117.5C 125.167,121.833 121.833,125.167 117.5,127.5C 81.5,127.5 45.5,127.5 9.5,127.5C 5.16667,125.167 1.83333,121.833 -0.5,117.5C -0.5,113.5 -0.5,109.5 -0.5,105.5C 8.90324,89.0294 18.5699,72.696 28.5,56.5C 27.0728,51.4416 27.2395,46.4416 29,41.5C 33.0383,35.389 36.705,29.0557 40,22.5C 49.7415,12.8565 61.2415,10.0231 74.5,14C 84.8249,18.1291 91.3249,25.6291 94,36.5C 99.3471,42.2116 100.847,48.8783 98.5,56.5C 102.821,62.4649 106.655,68.7983 110,75.5C 110.962,80.8275 109.295,82.1608 105,79.5C 102.333,74.8333 99.6667,70.1667 97,65.5C 92.9619,67.1024 89.1286,69.1024 85.5,71.5C 91.0388,86.9503 96.8721,102.284 103,117.5C 108.667,122.833 114.333,122.833 120,117.5C 122.509,111.246 121.509,105.58 117,100.5C 115.677,94.8042 117.344,93.4708 122,96.5C 123.859,99.5638 125.692,102.564 127.5,105.5 Z M 57.5,18.5 C 67.0588,17.0754 75.2254,19.7421 82,26.5C 83.5588,28.2166 84.3921,30.2166 84.5,32.5C 78.4701,33.5087 75.4701,37.1754 75.5,43.5C 69.219,41.3613 63.5523,38.1946 58.5,34C 55.5629,33.6386 52.7296,34.1386 50,35.5C 47.7799,33.8069 45.2799,32.8069 42.5,32.5C 43.2421,29.1908 44.9088,26.3575 47.5,24C 50.7667,21.8703 54.1,20.037 57.5,18.5 Z M 40.5,37.5 C 42.4643,37.977 43.7977,39.1437 44.5,41C 43.3055,44.5552 41.9722,48.0552 40.5,51.5C 41.7699,55.4842 41.7699,59.4842 40.5,63.5C 38.5866,62.627 36.7533,61.627 35,60.5C 34.4533,56.8396 33.9533,53.173 33.5,49.5C 33.5153,47.3659 34.0153,45.3659 35,43.5C 37.0396,41.6298 38.8729,39.6298 40.5,37.5 Z M 83.5,38.5 C 89.576,39.5795 92.9094,43.2462 93.5,49.5C 93.0467,53.173 92.5467,56.8396 92,60.5C 90.2467,61.627 88.4134,62.627 86.5,63.5C 85.2301,59.4842 85.2301,55.4842 86.5,51.5C 83.9876,47.3447 82.9876,43.0114 83.5,38.5 Z M 55.5,39.5 C 62.2061,45.0184 69.8727,48.6851 78.5,50.5C 79.2141,55.5177 79.8808,60.5177 80.5,65.5C 78.3184,67.7336 77.985,70.2336 79.5,73C 73.8776,81.3275 66.2109,83.9942 56.5,81C 53.0731,79.5687 50.2398,77.402 48,74.5C 47.6053,72.8214 47.772,71.1547 48.5,69.5C 48.278,67.9446 47.6113,66.6113 46.5,65.5C 47.2861,60.2187 47.7861,54.8854 48,49.5C 48.8462,44.7596 51.3462,41.4262 55.5,39.5 Z M 29.5,65.5 C 33.7568,66.9617 37.7568,68.9617 41.5,71.5C 35.9612,86.9503 30.1279,102.284 24,117.5C 20.604,121.203 16.4374,122.369 11.5,121C 5.97524,118.081 4.14191,113.581 6,107.5C 14.0898,93.5936 21.9231,79.5936 29.5,65.5 Z M 44.5,80.5 C 51.3188,84.9329 50.6521,88.2662 42.5,90.5C 42.1667,90 41.8333,89.5 41.5,89C 42.8031,86.2565 43.8031,83.4232 44.5,80.5 Z M 81.5,80.5 C 83.1015,83.1024 84.4348,85.9357 85.5,89C 81.8986,90.432 79.232,89.0987 77.5,85C 79.0414,83.6288 80.3747,82.1288 81.5,80.5 Z M 54.5,87.5 C 60.5,88.8333 66.5,88.8333 72.5,87.5C 73.0522,89.3307 73.0522,90.9974 72.5,92.5C 66.5,96.5 60.5,96.5 54.5,92.5C 53.9478,90.9974 53.9478,89.3307 54.5,87.5 Z M 44.5,95.5 C 50.335,98.6653 56.6684,100.665 63.5,101.5C 69.7905,101.071 75.4571,99.0711 80.5,95.5C 83.222,95.9535 85.8886,96.6202 88.5,97.5C 91.3491,105.885 94.6824,114.051 98.5,122C 75.1667,122.667 51.8333,122.667 28.5,122C 32.3176,114.051 35.6509,105.885 38.5,97.5C 40.6309,96.8313 42.6309,96.1646 44.5,95.5 Z"/></g>
<g><path style="opacity:0.799" fill="#000000" d="M -0.5,23.5 C 5.27794,23.8816 10.6113,25.7149 15.5,29C 18.2734,32.2051 17.6068,34.7051 13.5,36.5C 17.1212,38.1313 20.1212,40.4646 22.5,43.5C 22.5,45.5 21.5,46.5 19.5,46.5C 14.2263,44.5298 9.22631,42.0298 4.5,39C 2.77673,35.5921 3.77673,33.2587 7.5,32C 4.92885,30.5462 2.26219,29.3795 -0.5,28.5C -0.5,26.8333 -0.5,25.1667 -0.5,23.5 Z"/></g>
<g><path style="opacity:0.796" fill="#000000" d="M 127.5,23.5 C 127.5,25.1667 127.5,26.8333 127.5,28.5C 124.742,29.377 122.076,30.5437 119.5,32C 123.223,33.2587 124.223,35.5921 122.5,39C 118.167,41.3333 113.833,43.6667 109.5,46C 106.763,47.0798 105.096,46.2464 104.5,43.5C 106.879,40.4646 109.879,38.1313 113.5,36.5C 109.393,34.7051 108.727,32.2051 111.5,29C 116.389,25.7149 121.722,23.8816 127.5,23.5 Z"/></g>
<g><path style="opacity:0.731" fill="#000000" d="M 55.5,55.5 C 58.4734,55.9651 59.6401,57.6318 59,60.5C 56.7724,62.1134 54.2724,62.78 51.5,62.5C 50.6799,58.7212 52.0133,56.3879 55.5,55.5 Z"/></g>
<g><path style="opacity:0.731" fill="#000000" d="M 69.5,55.5 C 74.3848,55.3837 76.3848,57.717 75.5,62.5C 72.7276,62.78 70.2276,62.1134 68,60.5C 67.3872,58.5048 67.8872,56.8381 69.5,55.5 Z"/></g>
<g><path style="opacity:0.702" fill="#000000" d="M 60.5,66.5 C 64.1916,65.9712 67.3583,66.9712 70,69.5C 70.2208,74.8436 68.0541,75.8436 63.5,72.5C 58.9459,75.8436 56.7792,74.8436 57,69.5C 58.1451,68.3636 59.3117,67.3636 60.5,66.5 Z"/></g>
<g><path style="opacity:0.66" fill="#000000" d="M 112.5,84.5 C 116.013,85.0282 117.013,86.8615 115.5,90C 110.289,90.5464 109.289,88.713 112.5,84.5 Z"/></g>
</svg>
